<svg width="141" height="24" viewBox="0 0 141 24" fill="none" xmlns="http://www.w3.org/2000/svg">
<path d="M10.9413 2.9429C11.714 1.62493 13.6193 1.62493 14.392 2.9429L16.1178 5.88664C16.3998 6.36761 16.8697 6.70904 17.4143 6.8286L20.7473 7.5603C22.2395 7.8879 22.8283 9.69996 21.8136 10.8421L19.5472 13.3931C19.177 13.8099 18.9975 14.3624 19.052 14.9173L19.3861 18.3132C19.5357 19.8337 17.9942 20.9536 16.5944 20.3415L13.4679 18.9744C12.9571 18.751 12.3762 18.751 11.8654 18.9744L8.73883 20.3415C7.33903 20.9536 5.7976 19.8337 5.94716 18.3132L6.28122 14.9173C6.3358 14.3624 6.15629 13.8099 5.786 13.3931L3.51965 10.8421C2.50496 9.69995 3.09374 7.8879 4.58597 7.5603L7.91895 6.8286C8.46352 6.70904 8.93346 6.36761 9.21544 5.88664L10.9413 2.9429Z" fill="#FF8D4D"/>
<path d="M39.9413 2.9429C40.714 1.62493 42.6193 1.62493 43.392 2.9429L45.1178 5.88664C45.3998 6.36761 45.8697 6.70904 46.4143 6.8286L49.7473 7.5603C51.2395 7.8879 51.8283 9.69996 50.8136 10.8421L48.5472 13.3931C48.177 13.8099 47.9975 14.3624 48.052 14.9173L48.3861 18.3132C48.5357 19.8337 46.9942 20.9536 45.5944 20.3415L42.4679 18.9744C41.9571 18.751 41.3762 18.751 40.8654 18.9744L37.7388 20.3415C36.339 20.9536 34.7976 19.8337 34.9472 18.3132L35.2812 14.9173C35.3358 14.3624 35.1563 13.8099 34.786 13.3931L32.5196 10.8421C31.505 9.69995 32.0937 7.8879 33.586 7.5603L36.919 6.8286C37.4635 6.70904 37.9335 6.36761 38.2154 5.88664L39.9413 2.9429Z" fill="#FF8D4D"/>
<path d="M68.9413 2.9429C69.714 1.62493 71.6193 1.62493 72.392 2.9429L74.1178 5.88664C74.3998 6.36761 74.8697 6.70904 75.4143 6.8286L78.7473 7.5603C80.2395 7.8879 80.8283 9.69996 79.8136 10.8421L77.5472 13.3931C77.177 13.8099 76.9975 14.3624 77.052 14.9173L77.3861 18.3132C77.5357 19.8337 75.9942 20.9536 74.5944 20.3415L71.4679 18.9744C70.9571 18.751 70.3762 18.751 69.8654 18.9744L66.7388 20.3415C65.339 20.9536 63.7976 19.8337 63.9472 18.3132L64.2812 14.9173C64.3358 14.3624 64.1563 13.8099 63.786 13.3931L61.5196 10.8421C60.505 9.69995 61.0937 7.8879 62.586 7.5603L65.919 6.8286C66.4635 6.70904 66.9335 6.36761 67.2154 5.88664L68.9413 2.9429Z" fill="#FF8D4D"/>
<path d="M97.9412 2.9429C98.7138 1.62493 100.619 1.62493 101.392 2.9429L103.118 5.88664C103.4 6.36761 103.87 6.70904 104.414 6.8286L107.747 7.5603C109.239 7.8879 109.828 9.69996 108.813 10.8421L106.547 13.3931C106.177 13.8099 105.997 14.3624 106.052 14.9173L106.386 18.3132C106.536 19.8337 104.994 20.9536 103.594 20.3415L100.468 18.9744C99.9569 18.751 99.3761 18.751 98.8652 18.9744L95.7387 20.3415C94.3389 20.9536 92.7975 19.8337 92.947 18.3132L93.2811 14.9173C93.3357 14.3624 93.1562 13.8099 92.7859 13.3931L90.5195 10.8421C89.5048 9.69995 90.0936 7.8879 91.5858 7.5603L94.9188 6.8286C95.4634 6.70904 95.9333 6.36761 96.2153 5.88664L97.9412 2.9429Z" fill="#FF8D4D"/>
<path d="M126.941 2.9429C127.714 1.62493 129.619 1.62493 130.392 2.9429L132.118 5.88664C132.4 6.36761 132.87 6.70904 133.414 6.8286L136.747 7.5603C138.239 7.8879 138.828 9.69996 137.813 10.8421L135.547 13.3931C135.177 13.8099 134.997 14.3624 135.052 14.9173L135.386 18.3132C135.536 19.8337 133.994 20.9536 132.594 20.3415L129.468 18.9744C128.957 18.751 128.376 18.751 127.865 18.9744L124.739 20.3415C123.339 20.9536 121.797 19.8337 121.947 18.3132L122.281 14.9173C122.336 14.3624 122.156 13.8099 121.786 13.3931L119.52 10.8421C118.505 9.69995 119.094 7.8879 120.586 7.5603L123.919 6.8286C124.463 6.70904 124.933 6.36761 125.215 5.88664L126.941 2.9429Z" fill="#FF8D4D"/>
</svg>
