<svg width="1819" height="58" viewBox="0 0 1819 58" fill="none" xmlns="http://www.w3.org/2000/svg">
<g clip-path="url(#clip0_1_148)">
<rect width="1819" height="58" rx="8" fill="#FFDECC"/>
<g opacity="0.5">
<rect x="47" y="37" width="56" height="56" transform="rotate(90 47 37)" fill="white"/>
<rect x="47" y="37" width="56" height="28" transform="rotate(90 47 37)" fill="white"/>
<path d="M-9 65C-9 80.464 3.53603 93 19 93L19 37C3.53602 37 -9 49.536 -9 65Z" fill="white"/>
<rect width="56" height="56" transform="matrix(4.37114e-08 1 1 -4.37114e-08 -9 -19)" fill="#FF9E66"/>
<rect x="103" y="37" width="56" height="56" transform="rotate(90 103 37)" fill="white"/>
<rect width="56" height="56" transform="matrix(4.37114e-08 1 1 -4.37114e-08 47 -19)" fill="white"/>
<path d="M47 37C54.354 37 61.636 35.5515 68.4303 32.7373C75.2245 29.923 81.3979 25.7981 86.598 20.598C91.798 15.3979 95.923 9.22451 98.7372 2.43028C101.552 -4.36395 103 -11.646 103 -19L47 -19L47 37Z" fill="#FF9E66"/>
<rect x="159" y="37" width="56" height="56" transform="rotate(90 159 37)" fill="white"/>
<rect x="159" y="37" width="56" height="28" transform="rotate(90 159 37)" fill="#FFBE99"/>
<path d="M103 65C103 80.464 115.536 93 131 93L131 37C115.536 37 103 49.536 103 65Z" fill="#FFBE99"/>
<rect width="56" height="56" transform="matrix(4.37114e-08 1 1 -4.37114e-08 103 -19)" fill="white"/>
<path d="M159 37C151.646 37 144.364 35.5515 137.57 32.7373C130.775 29.923 124.602 25.7981 119.402 20.598C114.202 15.3979 110.077 9.22452 107.263 2.43028C104.448 -4.36395 103 -11.646 103 -19L159 -19L159 37Z" fill="#FF9E66"/>
<rect x="215" y="37" width="56" height="56" transform="rotate(90 215 37)" fill="url(#paint0_linear_1_148)"/>
<rect width="56" height="56" transform="matrix(4.37114e-08 1 1 -4.37114e-08 159 -19)" fill="url(#paint1_linear_1_148)"/>
</g>
<g opacity="0.5">
<rect width="56" height="56" transform="matrix(-4.37114e-08 1 1 4.37114e-08 1763 37)" fill="white"/>
<rect width="56" height="28" transform="matrix(-4.37114e-08 1 1 4.37114e-08 1763 37)" fill="white"/>
<path d="M1819 65C1819 80.464 1806.46 93 1791 93L1791 37C1806.46 37 1819 49.536 1819 65Z" fill="white"/>
<rect x="1819" y="-19" width="56" height="56" transform="rotate(90 1819 -19)" fill="#FF9E66"/>
<rect width="56" height="56" transform="matrix(-4.37114e-08 1 1 4.37114e-08 1707 37)" fill="white"/>
<rect x="1763" y="-19" width="56" height="56" transform="rotate(90 1763 -19)" fill="white"/>
<path d="M1763 37C1755.65 37 1748.36 35.5515 1741.57 32.7373C1734.78 29.923 1728.6 25.7981 1723.4 20.598C1718.2 15.3979 1714.08 9.22451 1711.26 2.43028C1708.45 -4.36395 1707 -11.646 1707 -19L1763 -19L1763 37Z" fill="#FF9E66"/>
<rect width="56" height="56" transform="matrix(-4.37114e-08 1 1 4.37114e-08 1651 37)" fill="white"/>
<rect width="56" height="28" transform="matrix(-4.37114e-08 1 1 4.37114e-08 1651 37)" fill="#FFBE99"/>
<path d="M1707 65C1707 80.464 1694.46 93 1679 93L1679 37C1694.46 37 1707 49.536 1707 65Z" fill="#FFBE99"/>
<rect x="1707" y="-19" width="56" height="56" transform="rotate(90 1707 -19)" fill="white"/>
<path d="M1651 37C1658.35 37 1665.64 35.5515 1672.43 32.7373C1679.22 29.923 1685.4 25.7981 1690.6 20.598C1695.8 15.3979 1699.92 9.22452 1702.74 2.43028C1705.55 -4.36395 1707 -11.646 1707 -19L1651 -19L1651 37Z" fill="#FF9E66"/>
<rect width="56" height="56" transform="matrix(-4.37114e-08 1 1 4.37114e-08 1595 37)" fill="url(#paint2_linear_1_148)"/>
<rect x="1651" y="-19" width="56" height="56" transform="rotate(90 1651 -19)" fill="url(#paint3_linear_1_148)"/>
</g>
<g opacity="0.9">
<path d="M1238.52 29.7283C1238.61 29.7382 1238.7 29.7482 1238.79 29.7614C1238.71 29.7482 1238.61 29.7382 1238.52 29.7283Z" fill="#262626"/>
<path d="M1244.24 31.5756L1243.74 31.3074C1243.73 31.3008 1243.71 31.2909 1243.7 31.2843C1243.65 31.2578 1243.59 31.2313 1243.54 31.2048C1243.57 31.2214 1243.61 31.2379 1243.65 31.2545C1243.57 31.2114 1243.49 31.1717 1243.41 31.1287L1243.06 30.9698C1243.09 30.983 1243.12 30.9996 1243.15 31.0128C1242.72 30.8142 1242.28 30.6354 1241.83 30.4765C1239.91 30.023 1237.93 29.8343 1234.51 29.778C1240.84 30.0892 1243.01 30.9929 1243.74 31.3041C1243.91 31.3902 1244.08 31.4796 1244.24 31.5756Z" fill="#262626"/>
<path d="M1239.21 29.5761C1238.96 29.5165 1238.71 29.4569 1238.5 29.4105L1238.37 29.384C1237.64 29.2682 1236.19 29.4966 1234.51 29.7846C1234.66 29.7648 1234.8 29.7482 1234.95 29.7316C1237.73 29.4138 1238.53 29.4668 1239.21 29.5794V29.5761Z" fill="#262626"/>
<path d="M1237.16 29.1788C1236.94 29.149 1236.67 29.1192 1236.46 29.096C1236.46 29.096 1236.45 29.096 1236.45 29.096C1236.41 29.1059 1236.4 29.1093 1234.51 29.7813C1236.71 29.1986 1236.92 29.1953 1237.22 29.1887C1237.2 29.1887 1237.18 29.1854 1237.16 29.1821V29.1788Z" fill="#262626"/>
<path d="M1235.51 29.053C1235.48 29.043 1235.44 29.0298 1235.41 29.0199C1235.41 29.0199 1235.41 29.0199 1235.4 29.0199C1235.2 29.0099 1235.07 29.0066 1235.06 29.0066C1234.94 29.0066 1234.8 29 1234.68 29C1234.91 29.0099 1234.91 29.0165 1235.02 29.1523C1234.98 29.3112 1234.81 29.5208 1234.52 29.7813C1235.45 29.2648 1235.48 29.1655 1235.51 29.053H1235.51Z" fill="#262626"/>
<path d="M1216.05 56.0433C1219.68 64.6108 1228.77 67.8915 1231.98 68.4311C1232 68.4311 1232.01 68.4344 1232.03 68.4377C1232.2 68.4576 1232.41 68.4808 1232.57 68.4973L1232.91 68.5271C1232.91 68.5271 1232.93 68.5271 1232.93 68.5271C1231.03 68.3517 1218.01 64.5082 1215.08 52.6865C1215.11 52.8619 1215.14 53.0341 1215.17 53.193C1215.39 54.0173 1215.73 55.0965 1216.01 55.9175C1216.03 55.9605 1216.04 56.0003 1216.05 56.0433Z" fill="#262626"/>
<path d="M1233.96 29.1523C1234.41 29.3211 1234.43 29.4204 1234.51 29.7813C1234.84 29.0431 1234.16 29.0298 1233.56 29.0199C1233.35 29.0298 1233.06 29.0497 1232.86 29.0662L1232.66 29.0828C1232.96 29.0629 1233.61 29.0199 1233.96 29.1523Z" fill="#262626"/>
<path d="M1234.07 68.5867C1234.14 68.5867 1234.22 68.59 1234.29 68.59H1234.33C1234.33 68.59 1234.35 68.59 1234.36 68.59C1234.45 68.59 1234.53 68.59 1234.62 68.59C1234.69 68.59 1234.76 68.59 1234.83 68.59C1234.83 68.59 1234.83 68.59 1234.84 68.59C1233.33 68.5636 1211.83 60.4132 1215.3 43.8541C1215.3 43.8541 1215.3 43.8541 1215.3 43.8575C1215.18 44.3242 1215.07 44.9532 1214.97 45.4233C1214.87 46.0258 1214.79 46.8369 1214.73 47.4427C1214.37 62.2968 1232.1 68.398 1234.07 68.5867Z" fill="#262626"/>
<path d="M1230.83 29.3443C1230.79 29.3509 1230.74 29.3608 1230.7 29.3675C1233.12 28.9536 1234.13 29.5495 1234.52 29.7813C1233.83 29.0265 1232.64 29.0397 1230.83 29.3443H1230.83Z" fill="#262626"/>
<path d="M1217.24 39.0672C1208.5 55.9109 1232.97 67.8021 1235.9 68.5404C1235.92 68.5404 1235.94 68.5404 1235.96 68.537L1236.09 68.5271C1236.11 68.5271 1236.13 68.5238 1236.15 68.5205C1236.3 68.5072 1236.48 68.4874 1236.63 68.4741C1236.65 68.4741 1236.67 68.4708 1236.69 68.4675C1233.22 65.8324 1229 64.3956 1225.66 61.5619C1224.03 60.1748 1220.2 56.9272 1217.96 52.5839C1213.48 43.8939 1217.47 38.3521 1219.42 35.9686C1219.35 36.048 1219.29 36.1275 1219.22 36.2036L1218.89 36.5976C1218.37 37.3093 1217.72 38.2859 1217.25 39.0374C1217.25 39.0473 1217.24 39.0572 1217.24 39.0672Z" fill="#262626"/>
<path d="M1229.93 29.533C1229.93 29.533 1229.96 29.5263 1229.97 29.523C1229.94 29.5296 1229.9 29.5363 1229.88 29.5429C1229.66 29.5925 1229.37 29.6687 1229.16 29.7283C1228.71 29.8508 1228.13 30.0328 1227.7 30.195C1227.43 30.2944 1227.08 30.4268 1226.82 30.536C1226.51 30.6684 1226.11 30.8605 1225.8 31.0028C1225.48 31.1485 1225.08 31.3636 1224.78 31.5391C1224.43 31.7444 1223.99 32.0125 1223.61 32.2608C1219.65 34.982 1216.53 39.3485 1216.96 44.2712C1217.98 55.8843 1231.13 63.8494 1236.08 66.8487C1237.23 67.5416 1237.83 68.0228 1237.9 68.292C1237.9 68.292 1237.92 68.2887 1237.93 68.2854C1238.2 68.2357 1238.54 68.1629 1238.81 68.1066C1238.82 68.1066 1238.83 68.1033 1238.84 68.1C1238.94 68.0669 1239.01 67.9279 1239.08 67.8484C1238.85 67.4147 1238.41 67.1036 1236.03 65.5443C1229.91 61.532 1223.74 56.9172 1220.14 50.379C1212.02 35.6176 1227.77 27.9803 1234.52 29.7779C1233.21 29.2714 1231.62 29.2151 1229.94 29.5296L1229.93 29.533Z" fill="#262626"/>
<path d="M1236.78 63.8957C1240.51 66.5309 1241.39 67.1566 1240.21 67.7392C1240.23 67.7359 1240.24 67.7326 1240.25 67.7293C1240.43 67.673 1240.64 67.6035 1240.84 67.5373C1240.98 67.4909 1241.12 67.4413 1241.25 67.3916C1242.92 66.617 1241.47 65.5444 1237.99 62.9854C1234.15 60.1549 1229.36 56.6326 1225.3 51.4815C1213.32 36.2731 1226.11 28.7451 1234.51 29.7813C1224.96 27.7122 1204.42 41.0336 1236.78 63.8957H1236.78Z" fill="#262626"/>
<path d="M1238.97 60.9362C1243.32 64.2698 1244.95 65.5179 1242.79 66.7626C1242.8 66.756 1242.82 66.7461 1242.84 66.7395C1243.2 66.5673 1243.65 66.329 1244 66.1535C1245.68 65.1703 1245.01 64.0282 1244.03 62.9423C1239.94 58.3971 1234.51 55.3845 1230.32 50.9518C1216.85 36.6836 1225.89 29.586 1234.51 29.7846C1225.72 28.9835 1210.02 38.7427 1238.97 60.9395V60.9362Z" fill="#262626"/>
<path d="M1242.33 58.1785C1246.47 61.4956 1247.95 63.28 1245.74 65.0743C1246.11 64.8094 1246.59 64.432 1246.97 64.144C1247.16 63.9884 1247.36 63.8196 1247.55 63.6508C1249.27 62.0783 1248.3 61.2275 1236.74 51.0445C1219.98 36.2864 1227.54 31.0757 1233 29.9865C1228.05 30.9101 1214.23 35.6673 1242.33 58.1785Z" fill="#262626"/>
<path d="M1234.29 29.7978C1233.89 29.8342 1233.45 29.8971 1232.99 29.9865C1233.58 29.8773 1234.03 29.821 1234.29 29.7978Z" fill="#262626"/>
<path d="M1234.51 29.7812C1234.51 29.7812 1234.42 29.7878 1234.29 29.7978C1234.37 29.7912 1234.44 29.7845 1234.51 29.7812Z" fill="#262626"/>
<path d="M1241.56 51.6834C1248.43 57.2119 1251.01 59.7411 1248.77 62.4888C1248.79 62.4723 1248.8 62.459 1248.82 62.4425C1249.17 62.0651 1249.59 61.5652 1249.92 61.1845C1249.93 61.1746 1249.93 61.1679 1249.94 61.158C1251.9 58.5957 1250.03 55.8977 1241.96 49.6309C1220.92 33.2838 1232.07 30.2315 1234.52 29.7846C1232.73 30.0097 1217.77 32.5422 1241.56 51.6834H1241.56Z" fill="#262626"/>
<path d="M1242.98 47.2606C1250.75 53.0671 1252.89 56.0366 1251.44 59.0061C1251.5 58.9068 1251.55 58.8108 1251.61 58.7148L1251.66 58.6221C1251.7 58.5526 1251.74 58.4897 1251.78 58.4268L1252.22 57.5727C1252.27 57.4635 1252.32 57.3542 1252.38 57.2483C1254.11 53.2691 1247.54 48.4821 1243.17 45.3074C1228.96 34.9621 1230.62 31.1584 1234.51 29.7879C1231.19 30.6552 1225.35 34.0981 1242.98 47.2672V47.2606Z" fill="#262626"/>
<path d="M1243.36 42.7517C1250.14 47.532 1254.21 50.7299 1253.36 54.719C1253.4 54.5833 1253.45 54.4476 1253.48 54.3152C1253.62 53.8186 1253.75 53.2591 1253.86 52.8122C1254.45 48.8363 1250.34 45.8039 1243.6 41.1924C1239.14 38.1435 1230.85 32.4693 1234.51 29.7812C1228.77 32.4726 1239.75 40.2092 1243.36 42.7517Z" fill="#262626"/>
<path d="M1243.86 39.236C1251.5 44.1984 1254.1 46.4496 1254.24 49.866C1254.24 49.7998 1254.25 49.7302 1254.25 49.664L1254.28 48.8298L1254.26 48.022C1254.25 47.9293 1254.25 47.84 1254.24 47.7473C1253.95 44.162 1249.17 41.2058 1243.13 37.4716C1238.88 34.8463 1234.06 31.8669 1234.52 29.7846C1232.53 31.8901 1239.35 36.3129 1243.86 39.2393L1243.86 39.236Z" fill="#262626"/>
<path d="M1243.36 36.0679C1250.4 40.067 1253.06 42.0102 1253.9 44.94C1253.79 44.4335 1253.62 43.7912 1253.48 43.2483C1253.45 43.1358 1253.41 43.0265 1253.38 42.914C1252.24 39.9345 1248.4 37.796 1241.73 34.2935C1237.02 31.8139 1235.47 30.844 1234.51 29.7846C1235.06 31.3604 1238.54 33.3368 1243.36 36.0712V36.0679Z" fill="#262626"/>
<path d="M1252.37 40.3284C1252.34 40.2688 1252.32 40.2092 1252.29 40.1496L1251.89 39.3584L1251.62 38.885C1251.57 38.799 1251.52 38.7129 1251.47 38.6268C1250.56 37.2166 1248.92 36.1671 1246.57 34.9356C1242.68 32.903 1238.52 31.5358 1234.52 29.7812C1235.77 30.5757 1238.06 31.6285 1240.96 32.9626C1248.67 36.5015 1251.04 38.0309 1252.38 40.3284H1252.37Z" fill="#262626"/>
<path d="M1249.97 36.4783C1249.93 36.432 1249.9 36.3923 1249.86 36.3426C1249.84 36.3128 1249.82 36.2863 1249.79 36.2565C1249.76 36.2201 1249.73 36.1837 1249.7 36.1473C1249.41 35.8096 1249.08 35.4421 1248.82 35.1475C1247.1 33.383 1242.28 31.5788 1234.51 29.7812C1246.3 33.3135 1248.58 34.9687 1249.97 36.4783Z" fill="#262626"/>
<path d="M1246.74 33.2638C1246.45 33.042 1246.14 32.8103 1245.87 32.6117C1245.81 32.572 1245.75 32.5355 1245.7 32.4958C1243.83 31.3173 1240.07 30.4036 1234.51 29.7812C1237.97 30.2944 1244.15 31.453 1246.98 33.4625C1246.9 33.393 1246.82 33.3267 1246.74 33.2638Z" fill="#262626"/>
<path d="M1238.9 29.7779C1239.36 29.8408 1239.81 29.9236 1240.26 30.0262C1241.05 30.1586 1241.15 30.1884 1241.75 30.3838C1241.73 30.3771 1241.71 30.3672 1241.7 30.3639C1241.4 30.2447 1240.99 30.1057 1240.68 29.9964H1240.67C1239.95 29.7614 1239.1 29.7316 1238.11 29.6919C1238.16 29.6952 1238.2 29.7018 1238.25 29.7051C1237.74 29.6588 1237.23 29.6323 1236.71 29.6323C1235.91 29.672 1235.81 29.6786 1234.51 29.7846C1236.57 29.6985 1237.49 29.715 1238.9 29.7812V29.7779ZM1238.52 29.7316C1238.61 29.7415 1238.7 29.7515 1238.79 29.7647C1238.7 29.7515 1238.61 29.7415 1238.52 29.7316Z" fill="#262626"/>
</g>
<g opacity="0.9">
<path d="M545.253 42.8807C545.338 42.911 545.429 42.9412 545.519 42.9776C546.161 43.1955 546.96 43.4438 547.572 43.6315C548.208 43.8131 549.061 44.0129 549.703 44.1643C541.354 42.1238 534.227 37.5524 528.529 30.5651L530.134 32.545C530.334 32.7691 530.509 32.9689 530.679 33.1505C531.272 33.7681 531.975 34.4826 532.689 35.1728C533.131 35.5785 533.682 36.0629 534.445 36.741C534.839 37.0559 535.299 37.4071 535.771 37.7583C539.822 40.7433 542.589 41.8453 545.259 42.8867L545.253 42.8807Z" fill="#262626"/>
<path d="M523.764 22.0522C530.4 37.7222 547.021 43.7225 552.894 44.7095C552.924 44.7095 552.949 44.7155 552.979 44.7216C553.288 44.7579 553.675 44.8003 553.978 44.8306L554.595 44.8851C554.595 44.8851 554.62 44.8851 554.626 44.8851C551.162 44.5642 527.343 37.5345 521.978 15.9126C522.039 16.2335 522.093 16.5483 522.154 16.839C522.553 18.3466 523.165 20.3205 523.679 21.8221C523.71 21.9008 523.74 21.9735 523.764 22.0522Z" fill="#262626"/>
<path d="M556.709 44.9942C556.848 44.9942 556.981 45.0003 557.12 45.0003H557.181C557.181 45.0003 557.229 45.0003 557.247 45.0003C557.405 45.0003 557.556 45.0003 557.714 45.0003C557.847 45.0003 557.98 45.0003 558.095 45.0003C558.101 45.0003 558.107 45.0003 558.113 45.0003C555.364 44.9518 516.032 30.0448 522.39 -0.241621C522.39 -0.241621 522.39 -0.241634 522.39 -0.235579C522.172 0.618156 521.96 1.76858 521.778 2.62837C521.602 3.73036 521.457 5.2138 521.336 6.32184C520.688 33.49 553.112 44.6491 556.709 44.9942Z" fill="#262626"/>
<path d="M525.926 -8.99729C509.947 21.8098 554.705 43.5589 560.057 44.9091C560.094 44.9091 560.13 44.9091 560.166 44.903L560.402 44.8849C560.439 44.8849 560.475 44.8788 560.517 44.8728C560.79 44.8485 561.117 44.8122 561.395 44.788C561.432 44.788 561.468 44.782 561.498 44.7759C555.159 39.9562 547.445 37.3284 541.336 32.1455C538.344 29.6085 531.339 23.6687 527.246 15.7247C519.054 -0.1693 526.344 -10.3051 529.922 -14.6646C529.795 -14.5193 529.674 -14.374 529.553 -14.2347L528.947 -13.5142C528.003 -12.2124 526.81 -10.4262 525.956 -9.05178C525.944 -9.03362 525.938 -9.01545 525.926 -8.99729Z" fill="#262626"/>
<path d="M549.146 -26.4353C549.146 -26.4353 549.189 -26.4474 549.213 -26.4535C549.158 -26.4414 549.092 -26.4293 549.043 -26.4172C548.644 -26.3263 548.123 -26.1871 547.729 -26.0781C546.918 -25.8541 545.846 -25.521 545.059 -25.2243C544.575 -25.0427 543.933 -24.8005 543.461 -24.6007C542.892 -24.3585 542.147 -24.0073 541.584 -23.747C541.008 -23.4805 540.264 -23.087 539.719 -22.7661C539.077 -22.3907 538.284 -21.9002 537.581 -21.4461C530.346 -16.469 524.636 -8.48268 525.423 0.520885C527.288 21.7613 551.344 36.3293 560.396 41.815C562.487 43.0825 563.593 43.9624 563.714 44.4549C563.714 44.4549 563.757 44.4489 563.775 44.4428C564.271 44.352 564.895 44.2188 565.391 44.1158C565.41 44.1158 565.428 44.1098 565.446 44.1037C565.621 44.0432 565.749 43.7889 565.87 43.6436C565.458 42.8504 564.653 42.2812 560.299 39.4294C549.098 32.0909 537.824 23.6504 531.242 11.6921C516.389 -15.3065 545.192 -29.2751 557.532 -25.9873C555.14 -26.9137 552.228 -27.0166 549.152 -26.4414L549.146 -26.4353Z" fill="#262626"/>
<path d="M561.667 36.4141C568.485 41.2338 570.108 42.3782 567.952 43.4438C567.977 43.4378 568.001 43.4317 568.019 43.4257C568.352 43.3227 568.727 43.1956 569.097 43.0745C569.351 42.9897 569.599 42.8989 569.847 42.8081C572.899 41.3912 570.241 39.4295 563.883 34.7491C556.854 29.5722 548.098 23.1298 540.675 13.7084C518.757 -14.1076 542.153 -27.8763 557.52 -25.9811C540.058 -29.7654 502.481 -5.40069 561.661 36.4141H561.667Z" fill="#262626"/>
<path d="M565.676 31.001C573.626 37.0983 576.605 39.3809 572.657 41.6575C572.687 41.6454 572.718 41.6273 572.748 41.6152C573.408 41.3003 574.231 40.8644 574.867 40.5435C577.943 38.7452 576.714 36.6562 574.928 34.6703C567.45 26.3569 557.52 20.847 549.86 12.7396C525.211 -13.3568 541.747 -26.3385 557.526 -25.9752C541.444 -27.4404 512.732 -9.59074 565.676 31.0071V31.001Z" fill="#262626"/>
<path d="M571.822 25.9576C579.396 32.0245 582.097 35.2881 578.052 38.5699C578.742 38.0855 579.62 37.3952 580.31 36.8684C580.656 36.5838 581.019 36.2751 581.364 35.9663C584.506 33.0902 582.744 31.5341 561.601 12.9094C530.951 -14.0832 544.762 -23.6135 554.753 -25.6056C545.695 -23.9163 520.434 -15.2154 571.822 25.9576Z" fill="#262626"/>
<path d="M570.411 14.078C582.974 24.1896 587.691 28.8155 583.604 33.841C583.634 33.8108 583.659 33.7866 583.683 33.7563C584.325 33.066 585.1 32.1518 585.705 31.4554C585.717 31.4373 585.729 31.4252 585.741 31.407C589.32 26.7205 585.899 21.7858 571.149 10.324C532.665 -19.5749 553.051 -25.1574 557.532 -25.9748C554.268 -25.5631 526.906 -20.9312 570.417 14.078H570.411Z" fill="#262626"/>
<path d="M573.008 5.98848C587.225 16.6087 591.137 22.0399 588.478 27.4711C588.587 27.2895 588.69 27.1139 588.793 26.9383L588.89 26.7687C588.963 26.6416 589.029 26.5265 589.096 26.4115L589.907 24.8494C590.004 24.6496 590.101 24.4497 590.198 24.256C593.371 16.978 581.346 8.22272 573.366 2.41612C547.36 -16.5053 550.399 -23.4623 557.526 -25.969C551.441 -24.3827 540.76 -18.0856 573.008 6.0006V5.98848Z" fill="#262626"/>
<path d="M573.698 -2.25819C586.111 6.48502 593.546 12.334 592.002 19.6301C592.075 19.3819 592.153 19.1336 592.22 18.8914C592.468 17.9832 592.717 16.9599 592.916 16.1425C593.982 8.87065 586.474 3.3244 574.14 -5.11002C565.99 -10.6865 550.823 -21.0646 557.526 -25.9811C547.015 -21.0585 567.099 -6.90831 573.698 -2.25819Z" fill="#262626"/>
<path d="M574.613 -8.68825C588.6 0.387981 593.353 4.50529 593.607 10.7539C593.613 10.6328 593.625 10.5056 593.631 10.3845L593.674 8.85873L593.637 7.38134C593.631 7.21181 593.625 7.04832 593.613 6.87878C593.074 0.321372 584.337 -5.0856 573.287 -11.9155C565.513 -16.717 556.703 -22.1663 557.532 -25.9748C553.893 -22.124 566.366 -14.0347 574.619 -8.68219L574.613 -8.68825Z" fill="#262626"/>
<path d="M573.705 -14.4827C586.589 -7.16848 591.439 -3.61427 592.983 1.74427C592.789 0.817882 592.475 -0.356769 592.214 -1.34977C592.154 -1.55563 592.093 -1.75543 592.033 -1.96129C589.938 -7.41066 582.92 -11.3221 570.732 -17.7281C562.116 -22.2632 559.276 -24.0373 557.526 -25.9748C558.531 -23.0927 564.895 -19.478 573.705 -14.4767V-14.4827Z" fill="#262626"/>
</g>
</g>
<rect x="1" y="1" width="1817" height="56" rx="7" stroke="#262626" stroke-width="2"/>
<defs>
<linearGradient id="paint0_linear_1_148" x1="243" y1="37" x2="243" y2="93" gradientUnits="userSpaceOnUse">
<stop stop-color="#FFBE99" stop-opacity="0"/>
<stop offset="1" stop-color="#FFBE99"/>
</linearGradient>
<linearGradient id="paint1_linear_1_148" x1="28" y1="0" x2="28" y2="56" gradientUnits="userSpaceOnUse">
<stop stop-color="#FF9E66"/>
<stop offset="1" stop-color="#FF9E66" stop-opacity="0"/>
</linearGradient>
<linearGradient id="paint2_linear_1_148" x1="28" y1="0" x2="28" y2="56" gradientUnits="userSpaceOnUse">
<stop stop-color="#FFBE99" stop-opacity="0"/>
<stop offset="1" stop-color="#FFBE99"/>
</linearGradient>
<linearGradient id="paint3_linear_1_148" x1="1679" y1="-19" x2="1679" y2="37" gradientUnits="userSpaceOnUse">
<stop stop-color="#FF9E66"/>
<stop offset="1" stop-color="#FF9E66" stop-opacity="0"/>
</linearGradient>
<clipPath id="clip0_1_148">
<rect width="1819" height="58" rx="8" fill="white"/>
</clipPath>
</defs>
</svg>
